# xmcd
#
# Track frame offsets:
#	150
#	16530
#	39644
#	54022
#	71312
#	88238
#	107530
#	132282
#	154304
#
# Disc length: 2421 seconds
#
# Revision: 0
# Processed by: cddbd v1.5.1PL0 Copyright (c) Steve Scherf et al.
# Submitted via: audiograbber 1.83.01
#
DISCID=65097309
DTITLE=EKP - At Least
DYEAR=2005
DGENRE=Hip-Hop
TTITLE0=A World Famous Introduction
TTITLE1=The Plan
TTITLE2=Don't Fuck With It
TTITLE3=Locked In A Tiny Room
TTITLE4=Rocking The Silence
TTITLE5=Tired Of Waiting
TTITLE6=They Don't Understand
TTITLE7=On My Own
TTITLE8=Live A Lie
EXTD=
EXTT0=
EXTT1=
EXTT2=
EXTT3=
EXTT4=
EXTT5=
EXTT6=
EXTT7=
EXTT8=
PLAYORDER=
